# xmcd
# 
# Track frame offsets:
#     150
#     15347
#     30839
#     42429
#     61675
#     74323
#     93885
#     106760
#     122421
#     140746
#     156511
#     171108
#     189006
#     211642
# 
# Disc length: 3063
# 
# Revision: 0
# Processed by: cddbd v1.5.2PL0 Copyright (c) Steve Scherf et al.
# Submitted via: fre:ac v1.0.27
# 
DISCID=a40bf50e
DTITLE=John Wesley Satterfield - Goodbye Whiskey EP
DYEAR=2012
DGENRE=Country
TTITLE0=Till the Dawn
TTITLE1=Goodbye Whiskey
TTITLE2=Get Her Off
TTITLE3=Appalachian Wind
TTITLE4=Father's Son
TTITLE5=Stuck in the Piedmont
TTITLE6=High Horse
TTITLE7=Better View
TTITLE8=Pride of Lions
TTITLE9=Come Down
TTITLE10=Despite the Feeling
TTITLE11=Without the Rain
TTITLE12=Sinking In
TTITLE13=The Boulevard
EXTD=
EXTT0=
EXTT1=
EXTT2=
EXTT3=
EXTT4=
EXTT5=
EXTT6=
EXTT7=
EXTT8=
EXTT9=
EXTT10=
EXTT11=
EXTT12=
EXTT13=
PLAYORDER=
